<svg width="680" height="680" viewBox="0 0 680 680" fill="none" xmlns="http://www.w3.org/2000/svg">
    <circle cx="340" cy="340" r="340" fill="#01EB00" />
    <mask id="mask0_3_2" style="mask-type:alpha" maskUnits="userSpaceOnUse" x="0" y="0" width="680" height="680">
        <circle cx="340" cy="340" r="340" fill="#01EB00" />
    </mask>
    <g mask="url(#mask0_3_2)">
        <path
            d="M615.166 176.822C622.628 238.987 579.009 263.017 525.053 269.024C519.162 250.269 510.55 232.479 499.493 216.225C516.209 191.188 554.493 173.165 615.166 176.822Z"
            fill="#F8ACB1" />
        <path
            d="M615.166 176.822C554.494 173.09 516.21 191.076 499.493 216.225C490.244 202.636 479.326 190.263 466.993 179.396C475.556 170.342 485.896 163.152 497.366 158.277V158.277C523.971 146.784 563.822 143.986 615.166 176.822Z"
            fill="#FFFBEA" />
        <path
            d="M571.509 679.998L534.195 679.774C544.643 676.976 554.941 644.102 552.516 570.109C572.852 619.923 564.419 667.386 571.509 679.998Z"
            fill="#DEB691" />
        <path
            d="M552.441 569.923C554.866 643.916 544.568 676.789 534.12 679.588L459.306 679.177V677.536C452.925 660.222 455.574 632.759 427.701 608.281C439.753 653.058 423.596 670.744 408.111 678.879L159.638 677.536C159.638 666.341 149.079 638.356 188.519 574.773L189.004 575.109C351.655 655.52 506.172 547.684 509.903 509.437C528.476 526.121 543.02 546.802 552.441 569.923V569.923Z"
            fill="#FFFBEA" />
        <path
            d="M525.053 269.024C541.583 321.263 539.978 386.563 509.568 463.056C511.209 441.638 503.971 420.145 489.679 400.331C486.628 396.162 483.365 392.152 479.903 388.316C492.291 388.316 518.411 339.808 502.291 270.479C510.053 270.33 517.627 269.845 525.053 269.024Z"
            fill="#DCB995" />
        <path
            d="M198.52 559.475C178.556 553.538 159.271 545.521 140.982 535.557C262.438 563.467 479.269 601.117 489.642 400.443C503.933 420.257 511.172 441.75 509.53 463.168C508.441 475.988 504.268 488.355 497.366 499.213C465.798 549.922 377.663 581.788 276.879 573.841C250.321 571.866 224.051 567.049 198.52 559.475V559.475Z"
            fill="#EB707E" />
        <path
            d="M466.992 179.396C479.325 190.263 490.244 202.636 499.492 216.225C494.22 224.171 490.973 233.287 490.037 242.777C489.1 252.268 490.502 261.843 494.119 270.666C496.93 270.666 499.729 270.666 502.515 270.666C518.56 339.995 492.44 388.466 480.127 388.503C444.156 348.689 378.708 317.793 300.685 311.711C241.953 307.159 186.728 317.457 144.414 337.159C145.767 303.143 153.356 269.664 166.803 238.39C235.46 238.39 300.573 225.889 290.983 133.538C330.166 124.789 371.084 128.172 408.298 143.239C429.794 151.831 449.65 164.062 466.992 179.396V179.396Z"
            fill="#FFFBEA" />
        <path
            d="M502.366 270.554C499.58 270.554 496.781 270.554 493.97 270.554C490.374 261.719 488.997 252.137 489.96 242.647C490.923 233.156 494.196 224.046 499.492 216.113C510.55 232.367 519.162 250.157 525.052 268.912C517.627 269.845 510.052 270.33 502.366 270.554Z"
            fill="#F8ACB1" />
        <path
            d="M497.403 499.176C501.769 502.534 505.911 505.929 509.754 509.437C506.209 547.684 351.655 655.52 188.855 575.109L188.37 574.773C191.405 569.798 194.738 564.699 198.37 559.475C223.899 567.075 250.169 571.916 276.729 573.915C377.7 581.751 465.836 549.885 497.403 499.176Z"
            fill="#DEB691" />
        <path
            d="M489.642 91C501.471 118.948 504.568 143.239 497.366 158.165C485.896 163.04 475.556 170.23 466.993 179.284C449.642 163.99 429.787 151.797 408.298 143.239C431.88 134.321 459.306 113.239 489.642 91Z"
            fill="#BDAC98" />
        <path
            d="M479.903 388.391C483.365 392.227 486.628 396.237 489.679 400.406V400.406C479.306 601.08 262.476 563.43 141.019 535.519C91.2799 508.056 61.0558 469.175 64.2274 428.429C67.1006 391.488 97.8099 358.615 144.228 337.047C186.542 317.345 241.767 307.196 300.498 311.599C378.447 317.681 443.933 348.577 479.903 388.391ZM324.529 533.915C324.529 531.415 318.148 529.4 310.237 529.4C302.327 529.4 295.946 531.415 295.946 533.915C295.946 536.415 302.327 538.43 310.237 538.43C318.148 538.43 324.529 536.228 324.529 533.728V533.915ZM306.282 402.72C307.252 395.257 297.513 387.794 284.528 386.078C271.543 384.361 260.2 389.137 259.229 396.675C258.259 404.212 267.998 411.6 280.983 413.354C293.968 415.108 305.312 410.07 306.282 402.533V402.72ZM180.348 402.72C180.348 394.809 169.639 388.391 156.467 388.391C143.295 388.391 132.549 394.809 132.549 402.72C132.549 410.63 143.258 417.011 156.467 417.011C169.676 417.011 180.348 410.63 180.348 402.72V402.72Z"
            fill="#F8ACB1" />
        <path
            d="M459.306 677.536V679.177L408.298 678.879C423.783 670.745 439.94 653.058 427.888 608.281C455.537 632.722 453.075 660.222 459.306 677.536Z"
            fill="#DEB691" />
        <path
            d="M310.237 538.243C318.13 538.243 324.528 536.222 324.528 533.728C324.528 531.235 318.13 529.213 310.237 529.213C302.344 529.213 295.946 531.235 295.946 533.728C295.946 536.222 302.344 538.243 310.237 538.243Z"
            fill="#A24842" />
        <path
            d="M284.528 385.891C297.513 387.57 307.252 395.033 306.282 402.533C305.312 410.033 294.006 414.809 280.983 413.167C267.961 411.526 258.259 404.025 259.229 396.488C260.199 388.951 271.505 384.212 284.528 385.891Z"
            fill="#64381E" />
        <path
            d="M282.737 135.515C285.424 134.769 288.148 134.06 290.872 133.426C300.461 225.777 235.349 238.278 166.691 238.278C167.885 235.554 169.154 232.904 170.423 230.292C173.417 224.238 176.73 218.347 180.348 212.643C189.667 197.711 201.091 184.201 214.266 172.531C219.016 168.335 223.999 164.411 229.192 160.777C245.46 149.348 263.572 140.803 282.737 135.515V135.515Z"
            fill="#2D2E29" />
        <path
            d="M240.983 91C268.819 106.448 269.006 118.463 282.737 135.515C263.572 140.803 245.46 149.348 229.192 160.777C215.908 125.888 234.49 91 240.983 91Z"
            fill="#BDAC98" />
        <path
            d="M214.266 172.531C201.22 184.179 189.911 197.637 180.684 212.494V212.494C163.034 172.717 128.78 163.463 105.422 154.247C163.743 137.306 214.266 162.456 214.266 172.531Z"
            fill="#2D2E29" />
        <path
            d="M180.348 212.643C176.73 218.347 173.417 224.238 170.422 230.292C126.541 223.725 100.161 203.576 105.422 154.247C128.78 163.463 163.034 172.717 180.348 212.643Z"
            fill="#F8ACB1" />
        <path
            d="M156.467 388.391C169.639 388.391 180.348 394.809 180.348 402.719C180.348 410.63 169.639 417.011 156.467 417.011C143.295 417.011 132.549 410.63 132.549 402.719C132.549 394.809 143.37 388.391 156.467 388.391Z"
            fill="#64381E" />
        <path d="M186.132 269.509L266.282 271.785" stroke="black" stroke-width="5.93067" stroke-linecap="round"
            stroke-linejoin="round" />
        <path d="M333.596 270.666H447.291" stroke="black" stroke-width="5.93067" stroke-linecap="round"
            stroke-linejoin="round" />
    </g>
    <path
        d="M491.5 264.495L497 277L483.657 297.272L468.552 297.008L468.273 313.001L453.169 312.737L452.889 328.73L437.785 328.467L437.506 344.46L422.401 344.196L407.297 343.933L392.192 343.669L377.088 343.405L361.983 343.142L346.879 342.878L347.158 326.885L332.054 326.621L332.333 310.628L317.228 310.365L317.507 294.372L302.403 294.108L287.298 293.844L287.019 309.837L271.915 309.574L271.357 341.56L180.73 339.978L181.288 307.992L166.183 307.728L166.463 291.735L153.5 276L159 259L182.125 260.013L197.23 260.276L212.334 260.54L227.439 260.804L242.543 261.067L257.648 261.331L272.752 261.595L287.857 261.858L302.961 262.122L318.066 262.386L333.17 262.649L348.275 262.913L363.379 263.177L378.484 263.44L393.588 263.704L408.693 263.968L423.797 264.231L438.902 264.495L454.006 264.759L469.111 265.022L491.5 264.495Z"
        fill="#070011" />
    <path
        d="M453.727 280.751L453.448 296.744L438.344 296.481L438.623 280.488L453.727 280.751ZM438.344 296.481L438.064 312.474L422.96 312.21L423.239 296.217L438.344 296.481ZM423.239 296.217L408.135 295.953L408.414 279.96L423.518 280.224L423.239 296.217ZM408.135 295.953L407.856 311.946L392.751 311.683L393.03 295.69L408.135 295.953ZM392.751 311.683L392.472 327.676L377.367 327.412L377.647 311.419L392.751 311.683ZM407.856 311.946L422.96 312.21L422.681 328.203L407.576 327.939L407.856 311.946Z"
        fill="white" />
    <path
        d="M278.139 277.688L277.859 293.681L262.755 293.417L263.034 277.424L278.139 277.688ZM262.755 293.417L262.476 309.41L247.371 309.147L247.651 293.154L262.755 293.417ZM247.651 293.154L232.546 292.89L232.825 276.897L247.93 277.161L247.651 293.154ZM232.546 292.89L232.267 308.883L217.162 308.619L217.442 292.626L232.546 292.89ZM217.162 308.619L216.883 324.612L201.779 324.349L202.058 308.356L217.162 308.619ZM232.267 308.883L247.371 309.147L247.092 325.14L231.988 324.876L232.267 308.883Z"
        fill="white" />
</svg>